<svg preserveAspectRatio="none" width="100%" height="100%" overflow="visible" style="display: block;" viewBox="0 0 47.8191 44.0002" fill="none" xmlns="http://www.w3.org/2000/svg">
<g id="Group">
<path id="Vector" d="M0.0619861 27.5233C-0.120014 27.0733 0.0919861 26.7393 0.787986 26.4093C1.68299 25.9593 4.21599 25.4453 5.21899 25.5053C5.99299 25.5523 5.99299 25.5523 5.99299 26.0753V26.5843L4.24599 26.9313C3.29099 27.1113 2.31799 27.3683 2.09399 27.5013C1.57899 27.8013 0.165986 27.8013 0.0619861 27.5183V27.5233Z" fill="var(--fill-0, #5E0018)"/>
<path id="Vector_2" d="M3.25399 23.1503C2.70899 22.6103 3.04199 22.2033 4.23999 21.9633C6.34899 21.5263 7.69799 21.3933 7.93999 21.5863C8.21199 21.8133 8.24299 22.4003 7.98799 22.6103C7.83599 22.7303 4.07499 23.3943 3.55699 23.3943C3.52599 23.3943 3.37499 23.2873 3.25399 23.1543V23.1503Z" fill="var(--fill-0, #5E0018)"/>
<path id="Vector_3" d="M33.803 28.3213C31.966 28.0813 28.888 27.2673 28.646 26.9853C28.356 26.6373 28.525 26.0813 28.918 26.0383C29.1 26.0083 30.103 26.1883 31.119 26.4453C33.82 27.1043 35.307 27.2593 38.282 27.1643C41.057 27.0873 42.319 26.8353 43.85 26.0683C46.124 24.9243 47.096 22.6233 46.05 20.8493C45.216 19.4533 43.759 18.9383 41.969 19.4533C41.044 19.7233 40.179 20.5073 39.799 21.4063C39.527 22.0363 39.207 22.2933 38.826 22.1733C37.702 21.8263 39.068 19.2733 40.828 18.4293C41.481 18.1123 41.874 18.0393 43.059 18.0093C44.364 17.9793 44.576 18.0093 45.272 18.3693C48.125 19.8423 48.67 23.3173 46.456 25.8413C45.441 27.0153 43.832 27.7813 41.191 28.3983C40.205 28.6253 35.744 28.5783 33.803 28.3213Z" fill="var(--fill-0, #5E0018)"/>
<path id="Vector_4" d="M34.693 33.2913C32.947 33.1713 30.401 32.7343 27.409 32.0143C25.663 31.6073 24.176 31.2303 24.115 31.1873C23.933 31.0803 23.977 30.4673 24.176 30.2703C24.448 30.0003 24.738 30.0303 27.47 30.6903C35.19 32.5243 40.032 32.4513 43.296 30.4503C44.07 29.9833 44.252 29.9233 44.571 30.0733C45.073 30.3003 45.056 30.8873 44.524 31.2903C44.295 31.4573 43.672 31.8003 43.128 32.0573C42.583 32.2973 42.004 32.5673 41.87 32.6573C41.718 32.7343 41.446 32.7943 41.247 32.7943C41.048 32.7943 40.836 32.8543 40.763 32.9143C40.322 33.2913 37.438 33.4713 34.693 33.2913Z" fill="var(--fill-0, #5E0018)"/>
<path id="Vector_5" d="M33.12 40.3063C32.056 40.0963 31.3 39.5993 29.735 38.1253C27.686 36.1723 26.99 35.7653 24.772 35.1953C24.119 35.0283 23.877 34.6983 24.058 34.2183C24.149 33.9913 24.301 33.9613 25.152 34.0383C26.747 34.1583 28.338 35.0453 30.279 36.8663C32.13 38.6103 32.813 38.9993 33.98 38.9993C34.966 38.9993 35.575 38.7303 36.224 37.9933C36.799 37.3463 37.028 36.5663 36.907 35.7223C36.829 35.1653 36.877 35.0453 37.149 34.8953C38.256 34.3253 38.709 36.0523 37.923 37.8433C37.573 38.6403 36.647 39.6463 35.964 39.9933C35.299 40.3403 33.963 40.4733 33.111 40.3103L33.12 40.3063Z" fill="var(--fill-0, #5E0018)"/>
<path id="Vector_6" d="M8.19899 43.9533C8.09099 43.9053 7.99999 43.6533 7.99999 43.3833C7.99999 42.8563 9.65599 37.8473 10.412 36.1043L10.853 35.0503L10.352 34.3603C9.24499 32.7963 7.92199 29.7293 8.02999 28.9023C8.09099 28.3923 8.51399 28.1183 8.86499 28.3453C9.01599 28.4353 9.36599 29.1423 9.66899 29.9263C10.244 31.4293 11.186 33.2503 11.428 33.3233C11.519 33.3533 12.003 32.4363 12.535 31.3093C15.431 24.9773 19.56 19.1763 24.704 14.1983C26.844 12.1243 31.215 8.41027 31.517 8.41027C31.578 8.41027 31.79 8.53027 31.971 8.67927C32.213 8.87727 32.291 9.03927 32.213 9.24927C32.166 9.41627 31.18 10.3163 30.043 11.2633C23.87 16.3613 19.257 21.8323 15.583 28.3883C14.277 30.7013 12.505 34.6263 12.729 34.7033C13.032 34.8103 14.597 34.3863 15.431 33.9663C16.616 33.3663 17.831 32.4493 19.832 30.5813C20.788 29.6943 22.063 28.5503 22.638 28.0533C23.23 27.5563 23.775 27.0893 23.853 26.9993C23.961 26.9093 23.291 26.8923 21.864 26.9523C19.543 27.0593 19.3 26.9823 19.404 26.2623C19.465 25.8433 19.677 25.7353 22.331 24.7763C26.429 23.2893 29.036 21.6953 31.435 19.2103C32.801 17.7973 34.392 15.8733 34.392 15.6333C34.392 15.5263 33.891 15.4663 33.074 15.4533C30.54 15.4363 29.615 15.1233 29.948 14.3693C30.099 14.0523 30.402 13.9323 32.451 13.4523C35.317 12.7753 37.107 12.1763 37.807 11.6493C38.823 10.8823 40.539 6.76027 41.222 3.47027C41.603 1.60627 41.603 1.33627 41.27 1.33627C41.011 1.33627 39.662 1.57627 36.675 2.16327C34.958 2.49327 32.974 3.15727 31.288 3.95427C30.545 4.31427 29.529 4.78127 29.045 5.00827C28.21 5.38527 28.163 5.42827 27.588 6.64927C27.268 7.33827 26.753 8.57227 26.433 9.39927C25.75 11.1733 25.69 11.2633 25.128 11.2633C24.445 11.2633 24.432 10.7833 25.05 9.14227C25.353 8.35827 25.595 7.68627 25.595 7.62627C25.595 7.30827 24.972 7.57827 24.216 8.22527C23.745 8.61527 22.85 9.35227 22.214 9.87927C19.893 11.8203 17.463 14.9003 16.754 16.8243C16.313 17.9983 15.89 20.0123 15.89 20.9583C15.89 21.7853 15.496 22.3253 14.995 22.1623C14.571 22.0253 14.402 21.5933 14.281 20.2693C14.191 19.3223 14.143 19.2153 13.871 19.2623C13.629 19.2923 13.447 19.6093 13.067 20.6763C12.414 22.4973 12.124 23.8633 11.93 26.2243C11.839 27.3083 11.688 28.2683 11.61 28.3753C11.381 28.6323 10.944 28.6023 10.637 28.2983C10.425 28.0703 10.395 27.8483 10.486 26.6143C10.728 23.0963 11.458 20.4793 12.85 17.9513C13.974 15.9673 14.688 15.5433 14.913 16.7473C15.034 17.3773 15.155 17.3043 15.427 16.4473C16.43 13.3193 20.844 8.56827 25.517 5.60827C30.069 2.72027 33.588 1.21627 37.716 0.419272C39.809 0.0292715 42.498 -0.137728 42.813 0.132272C43.133 0.402272 43.103 1.15627 42.662 3.39727C41.966 6.84127 40.509 10.5863 39.277 12.0903C38.642 12.8873 37.306 13.6543 36.151 13.9113C35.408 14.0783 35.239 14.4213 35.892 14.4213C36.865 14.4213 36.713 15.0073 35.179 17.0083C33.722 18.9193 31.37 21.3703 29.883 22.5143C28.396 23.6403 27.38 24.3353 27.168 24.3353C26.848 24.3523 25.046 25.2393 24.847 25.4613C24.665 25.6713 24.709 25.7013 25.24 25.7013C25.876 25.7013 26.196 25.9113 26.196 26.3183C26.196 26.5753 19.612 32.8133 17.986 34.0903C17.532 34.4503 16.681 34.9473 16.106 35.1873C15.513 35.4273 14.921 35.6973 14.77 35.7873C14.632 35.8643 13.979 35.9973 13.343 36.0863C12.69 36.1763 12.068 36.2963 11.934 36.3743C11.675 36.5113 11.675 36.5113 10.157 40.9583C9.20199 43.7553 9.09399 43.9653 8.74799 43.9953C8.53599 44.0133 8.27699 43.9783 8.18599 43.9483L8.19899 43.9533Z" fill="var(--fill-0, #5E0018)"/>
</g>
</svg>
