<svg preserveAspectRatio="none" width="100%" height="100%" overflow="visible" style="display: block;" viewBox="0 0 47.9999 40" fill="none" xmlns="http://www.w3.org/2000/svg">
<g id="Group">
<path id="Vector" d="M12.8 39.767C10.627 39.296 8.91805 38.359 7.40805 36.813C6.86605 36.269 6.22905 35.479 5.98805 35.069L5.54905 34.326H4.40005C3.50905 34.326 3.08805 34.236 2.54105 33.964C1.62005 33.523 0.549046 32.327 0.247046 31.416C-0.130954 30.324 -0.0709542 28.886 0.398046 27.884C1.06105 26.429 1.95205 25.717 3.49205 25.397L4.44305 25.216L4.77405 24.201C6.11705 20.186 9.42605 17.003 13.777 15.548C15.726 14.883 17.49 14.655 19.861 14.745C22.503 14.836 23.695 15.078 27.052 16.213C28.545 16.727 29.965 17.124 30.313 17.124C31.006 17.124 31.505 16.701 31.656 15.959C31.764 15.458 31.837 15.535 29.225 13.459C27.456 12.064 25.662 10.186 24.724 8.761C22.822 5.881 22.323 3.212 23.515 2.288C24.375 1.606 26.368 2.016 28.558 3.351C29.238 3.761 29.857 4.093 29.93 4.093C29.991 4.093 30.051 3.713 30.051 3.26C30.051 1.274 30.701 0 31.712 0C33.175 0 35.804 2.621 37.254 5.531C37.947 6.896 38.446 8.411 38.808 10.168C38.976 11.032 39.156 11.896 39.199 12.077C39.247 12.319 39.44 12.457 39.909 12.578C41.618 13.031 43.774 14.413 45.013 15.82C45.831 16.744 46.962 18.653 47.565 20.108C47.986 21.11 48.047 21.412 47.973 22.155C47.883 23.26 47.384 24.111 46.312 25.095C45.013 26.278 43.593 26.943 41.781 27.215C40.934 27.336 40.193 27.487 40.15 27.547C40.103 27.608 39.983 28.031 39.879 28.502C39.531 30.125 38.489 31.973 37.039 33.502L36.222 34.365L36.54 34.896C36.738 35.216 37.19 35.622 37.642 35.881C38.653 36.455 39.501 37.396 39.711 38.152C39.879 38.834 39.802 39.167 39.363 39.668C39.062 39.987 38.971 40 36.191 40C33.881 40 33.248 39.953 32.822 39.758C32.233 39.469 31.492 38.623 30.361 36.926C29.621 35.833 29.53 35.743 29.169 35.833C28.941 35.894 28.639 36.045 28.489 36.183C28.231 36.412 28.248 36.442 28.596 36.805C29.337 37.578 29.504 38.683 28.988 39.516L28.687 40L21.255 39.983C15.321 39.983 13.6 39.922 12.783 39.754L12.8 39.767ZM27.796 38.359C27.796 37.919 27.207 37.267 26.527 36.965C25.997 36.723 25.515 36.675 23.175 36.675C20.261 36.675 19.956 36.598 20.171 35.933C20.261 35.63 20.958 35.311 21.514 35.311C22.206 35.311 23.385 32.599 23.403 30.963C23.433 29.404 22.8 27.75 21.712 26.567C20.864 25.643 19.822 25.142 18.587 25.039C17.576 24.961 17.077 24.706 17.077 24.249C17.077 23.778 17.499 23.584 18.497 23.614C23.347 23.752 26.243 29.326 24.057 34.313C23.876 34.724 23.725 35.086 23.725 35.134C23.725 35.285 26.548 35.043 27.62 34.784C28.648 34.542 28.721 34.495 28.631 34.193C28.36 33.329 28.373 33.221 28.751 32.966C29.281 32.617 29.659 32.845 30.141 33.787C30.671 34.832 32.512 37.573 33.085 38.165L33.567 38.649H35.89C38.429 38.649 38.519 38.618 37.883 37.815C37.702 37.586 37.22 37.241 36.794 37.06C36.372 36.861 35.903 36.589 35.765 36.438C35.434 36.058 33.786 32.742 33.442 31.727C33.123 30.833 33.274 30.471 33.984 30.471C34.423 30.471 34.466 30.531 35.116 32.047L35.494 32.958L36.114 32.353C37.474 31.019 38.408 29.141 38.653 27.215C38.73 26.58 38.834 26.019 38.881 25.972C38.928 25.924 39.591 25.864 40.361 25.833C42.84 25.756 45.056 24.741 46.054 23.243C46.627 22.379 46.657 21.697 46.162 20.484C44.484 16.33 41.39 13.921 37.388 13.666L36.045 13.575L35.563 12.712C33.795 9.542 30.942 6.546 27.908 4.65C26.656 3.86 25.068 3.286 24.586 3.437C23.833 3.679 24.844 6.589 26.415 8.649C27.353 9.892 29.298 11.753 31.049 13.104C32.921 14.542 33.089 14.758 33.089 15.743C33.089 16.727 32.68 17.578 31.957 18.139C31.127 18.774 29.857 18.731 27.805 17.971C23.695 16.485 21.884 16.153 18.549 16.274C16.496 16.334 16.1 16.395 14.818 16.835C14.03 17.094 12.705 17.668 11.887 18.092C9.80505 19.184 7.92905 21.015 6.93505 22.971C6.02705 24.745 5.59205 26.472 5.57505 28.351C5.55805 30.035 5.77305 31.153 6.37505 32.625C7.68805 35.855 10.407 37.988 13.837 38.506C14.259 38.566 17.568 38.627 21.208 38.644C27.551 38.661 27.809 38.644 27.809 38.372L27.796 38.359ZM4.71805 32.811C4.76605 32.763 4.67105 32.297 4.50805 31.779C4.29705 31.127 4.17605 30.22 4.12905 28.839C4.05105 26.991 4.02105 26.822 3.75005 26.822C3.07005 26.822 1.98205 27.733 1.66805 28.566C1.56005 28.826 1.48705 29.417 1.48705 29.901C1.48705 31.054 2.04605 32.021 3.01005 32.539C3.63005 32.858 4.52105 33.01 4.71805 32.811ZM37.762 11.991C37.762 11.567 37.25 9.443 36.854 8.247C36.312 6.611 35.374 4.914 34.225 3.489C33.455 2.535 32.263 1.52 31.901 1.52C31.643 1.52 31.57 1.96 31.462 3.657L31.372 5.294L33.02 7.008C34.638 8.674 35.632 9.961 36.48 11.416C36.811 12.008 36.962 12.129 37.328 12.129C37.568 12.129 37.766 12.068 37.766 11.991H37.762Z" fill="var(--fill-0, #5E0018)"/>
<path id="Vector_2" d="M40.283 19.504C39.496 18.713 40.494 17.608 41.506 18.139C41.867 18.338 41.897 19.232 41.553 19.564C41.234 19.896 40.645 19.866 40.283 19.504Z" fill="var(--fill-0, #5E0018)"/>
</g>
</svg>
