<svg preserveAspectRatio="none" width="100%" height="100%" overflow="visible" style="display: block;" viewBox="0 0 38.9998 48" fill="none" xmlns="http://www.w3.org/2000/svg">
<g id="Group">
<path id="Vector" d="M29.2395 26.6211C28.9851 26.4869 28.9724 26.1215 28.9724 22.2825C28.9724 19.9824 29.0185 18.0017 29.0617 17.8714C29.1973 17.5315 29.9682 17.5609 30.1627 17.9184C30.2521 18.0947 30.311 19.7473 30.311 22.2697C30.311 25.7512 30.2815 26.3566 30.0743 26.5496C29.8072 26.8151 29.599 26.8444 29.2395 26.626V26.6211Z" fill="var(--fill-0, #5E0018)"/>
<path id="Vector_2" d="M26.8304 43.4407C26.5171 43.2173 26.5171 43.1292 26.5171 38.673C26.5171 35.3512 26.5632 34.0983 26.6948 33.9631C26.962 33.6986 27.5296 33.7574 27.7074 34.0689C27.9028 34.451 27.9146 42.848 27.7074 43.2173C27.5002 43.617 27.1869 43.6885 26.8304 43.4407Z" fill="var(--fill-0, #5E0018)"/>
<path id="Vector_3" d="M24.4949 47.8302C23.9439 47.5775 23.4528 47.0603 23.2446 46.5176C23.1386 46.2364 23.0796 43.5955 23.0796 38.7563C23.0796 31.8188 23.0963 31.3946 23.3468 31.1713C23.4951 31.0244 23.8084 30.9195 24.0156 30.9195H24.4183V29.4727C24.4183 27.9847 24.5243 27.6732 25.0409 27.6732C25.2953 27.6732 25.3081 27.3323 25.3081 21.2823C25.3081 15.2617 25.3248 14.8621 25.5752 14.6436C25.7235 14.4967 26.0201 14.3909 26.2273 14.3909H26.6133L26.6722 10.9682C26.7184 7.66403 26.7488 7.49946 27.1171 6.6002C27.8164 4.93097 28.4685 4.01897 30.2855 2.20183C32.9333 -0.454823 33.4086 -0.585108 34.2424 1.15563C35.0311 2.82485 35.1195 3.63595 35.1195 9.03448C35.1195 11.7215 35.1666 14.0216 35.2088 14.1558C35.2678 14.29 35.476 14.3909 35.7127 14.3909C36.6192 14.3909 36.6064 14.2273 36.6064 21.2657V27.6693H36.9629C37.6445 27.6693 37.7967 28.0102 37.7967 29.5275C37.7967 30.7804 37.8272 30.9146 38.0805 30.9146C38.2288 30.9146 38.496 31.0332 38.6737 31.1801L38.9998 31.4319L38.9537 38.9875C38.9075 46.3501 38.8947 46.5431 38.5981 46.9427C38.4321 47.1651 38.1061 47.4893 37.8861 47.649C37.4834 47.9439 37.2762 47.9605 31.2096 47.9899C26.1979 48.0193 24.8465 47.9899 24.49 47.8253L24.4949 47.8302ZM37.3695 46.2786C37.6356 45.9543 37.6533 45.6438 37.6239 39.1226L37.5767 32.3194H31.0358H24.4949V39.2235V46.1434L24.8504 46.4255C25.1932 46.7076 25.4436 46.7194 31.1419 46.6782L37.0896 46.6312L37.3734 46.2786H37.3695ZM36.3864 29.9566V29.0691L33.5608 29.0397C32.014 29.0103 29.6333 29.0397 28.2819 29.1151L25.8296 29.2209L25.7824 30.0781L25.7363 30.9195L31.0564 30.8902L36.3776 30.8431V29.9566H36.3864ZM35.2717 21.6947V15.7202H30.9592H26.6467V21.6947V27.6693H30.9592H35.2717V21.6947ZM33.7848 9.44689C33.7848 5.57848 33.7386 4.50191 33.5903 4.50191C33.5009 4.50191 32.8026 5.17881 32.0444 6.02028C29.5322 8.79448 29.0696 9.13538 28.7858 8.41244C28.5913 7.94126 28.9341 7.39465 30.3326 5.93114C31.137 5.09065 32.1328 3.99742 32.561 3.49685C33.2603 2.6691 33.3025 2.53881 33.1542 2.21457C33.0649 2.00885 32.8704 1.84526 32.7388 1.84526C32.396 1.84526 29.9132 4.3971 29.2611 5.43154C28.1886 7.08314 28.0875 7.58371 28.0109 11.1876L27.9519 14.3909H30.8659H33.7808V9.44689H33.7848Z" fill="var(--fill-0, #5E0018)"/>
<path id="Vector_4" d="M3.05421 45.152C2.9943 44.9591 2.93537 35.8978 2.94814 24.995C2.96483 7.5553 2.9943 5.16216 3.18483 5.04461C3.32036 4.95644 6.33743 4.89767 10.6499 4.89767C17.0298 4.89767 17.9068 4.92705 18.114 5.13277C18.3222 5.33946 18.3517 7.36134 18.3517 25.2477C18.3517 40.5058 18.3046 45.1687 18.1739 45.3039C18.0384 45.4381 16.1527 45.4802 10.59 45.4802H3.18483L3.04929 45.1569L3.05421 45.152ZM9.37415 43.8404C9.65798 43.5289 9.65798 43.5289 8.87032 42.8059C8.43819 42.4062 7.96383 42.083 7.82829 42.083C7.54446 42.083 5.867 43.6758 5.867 43.9579C5.867 44.1048 6.26967 44.1519 7.47277 44.1519C8.93023 44.1519 9.12469 44.1225 9.37415 43.8404ZM14.8485 43.8237C14.984 43.6004 14.8652 43.4113 14.0726 42.6423L13.1494 41.7127L12.2252 42.6296C11.3187 43.5465 11.3021 43.5455 11.5859 43.8531C11.8403 44.1342 12.0013 44.147 13.2683 44.1176C14.4114 44.0882 14.708 44.0294 14.8436 43.8237H14.8485ZM5.97307 42.0536C6.49359 41.553 6.90903 41.0652 6.90903 40.9897C6.90903 40.9016 6.6252 40.5479 6.28636 40.2071C5.60379 39.5135 4.99389 39.3793 4.50283 39.825C4.10016 40.1953 4.11686 42.2593 4.5323 42.6707C4.69729 42.8353 4.87506 42.9656 4.93497 42.9656C4.99389 42.9656 5.46826 42.5542 5.977 42.0497L5.97307 42.0536ZM11.4464 41.7881L12.3235 40.9016L11.5181 40.0895C11.0732 39.6487 10.6244 39.2784 10.5056 39.2784C10.3995 39.2784 9.95458 39.6604 9.50968 40.1355L8.70533 40.977L9.5529 41.8351C10.0145 42.2936 10.4299 42.6756 10.4761 42.6756C10.5222 42.6756 10.9505 42.276 11.4415 41.7881H11.4464ZM16.4415 42.2005C16.9748 41.7715 17.0209 41.6833 17.0209 40.9897C17.0209 40.2962 16.9748 40.1904 16.4287 39.7662C16.1144 39.5008 15.8051 39.2784 15.7295 39.2784C15.6528 39.2784 15.2374 39.6487 14.7935 40.0895L13.9882 40.9016L14.8652 41.7881C15.3562 42.276 15.7717 42.6756 15.8011 42.6756C15.8306 42.6756 16.1144 42.4699 16.4415 42.2044V42.2005ZM8.82809 39.1902C9.24353 38.7318 9.58629 38.3194 9.58629 38.2733C9.58629 38.1097 8.04043 36.6208 7.87445 36.6208C7.78606 36.6208 7.44232 36.9029 7.11626 37.2555C6.00253 38.4203 6.0153 38.3027 6.9218 39.2196C7.35393 39.6487 7.78606 40.018 7.88722 40.018C7.97659 40.018 8.39203 39.6487 8.82416 39.1902H8.82809ZM14.0304 39.2196C14.4458 38.7778 14.7886 38.3615 14.7886 38.29C14.7886 38.0382 13.3616 36.7726 13.065 36.7726C12.8695 36.7726 12.4718 37.0665 12.0396 37.5249L11.3276 38.2773L12.2046 39.1481C12.679 39.6193 13.1111 40.018 13.17 40.018C13.2172 40.018 13.6022 39.6653 14.0343 39.2196H14.0304ZM6.90903 35.6794C6.90903 35.4737 5.39263 33.968 5.19719 33.968C5.1088 33.968 4.85443 34.161 4.63444 34.3804C4.27793 34.7331 4.23177 34.9094 4.23177 35.7382C4.23177 36.608 4.26123 36.6972 4.72283 37.0792L5.19719 37.4916L6.06146 36.6502C6.52305 36.1927 6.90903 35.7509 6.90903 35.6755V35.6794ZM11.3237 36.5963C11.7558 36.1672 12.1113 35.7088 12.1113 35.5785C12.1113 35.2836 10.8022 34.1189 10.4761 34.1189C10.2384 34.1189 8.84086 35.4315 8.84086 35.6539C8.84086 35.8008 10.3278 37.3653 10.4633 37.3653C10.5095 37.3653 10.8955 37.0244 11.3276 36.5963H11.3237ZM17.017 35.6079C17.017 35.2082 16.8815 34.9604 16.466 34.5313C16.1694 34.2198 15.8139 33.972 15.6784 33.972C15.4417 33.972 14.0432 35.4482 14.0432 35.7C14.0432 35.7587 14.4291 36.1584 14.8907 36.5875L15.755 37.3564L16.3943 36.7383C16.8982 36.2515 17.017 36.032 17.017 35.6157V35.6079ZM8.84086 33.8799L9.62852 33.0511L8.82416 32.2528C8.39203 31.811 7.93043 31.4534 7.79883 31.4534C7.6633 31.4534 7.32446 31.7062 7.04063 32.0128C6.0153 33.0893 6.0153 33.0012 6.9218 33.9004C7.35393 34.3295 7.78606 34.6998 7.88722 34.6998C7.97659 34.6998 8.40873 34.3295 8.84086 33.8711V33.8799ZM14.0432 33.7741L14.8308 32.9169L14.0265 32.1058C13.5943 31.664 13.1789 31.3065 13.12 31.3065C13.06 31.3065 12.6279 31.6895 12.183 32.1646L11.3787 33.0051L12.2262 33.8632C12.6878 34.3207 13.1023 34.691 13.1622 34.6743C13.2083 34.6449 13.6071 34.2453 14.0392 33.7741H14.0432ZM6.23529 29.6882C5.6254 29.0701 5.43094 28.9515 5.12157 29.0231C4.439 29.2004 4.22686 29.5109 4.22686 30.4111C4.22686 31.1341 4.28677 31.281 4.7022 31.7101L5.17657 32.1979L6.0703 31.3104L6.97679 30.4239L6.23529 29.6882ZM11.467 31.1762L12.2429 30.3181L11.467 29.5657C11.0349 29.1367 10.59 28.7968 10.4722 28.7968C10.3533 28.7968 9.90842 29.1367 9.47629 29.5657L8.68863 30.3347L9.53522 31.1929C10.0096 31.664 10.4594 32.051 10.5478 32.051C10.6244 32.051 11.0398 31.6513 11.472 31.1801L11.467 31.1762ZM16.361 31.5171C16.9414 31.0586 17.0131 30.9284 17.0131 30.3817C17.0131 29.8812 16.9237 29.6755 16.4621 29.217C16.1655 28.9055 15.8394 28.6577 15.7628 28.6577C15.5684 28.6577 14.0392 30.1457 14.0392 30.3396C14.0392 30.4866 15.5262 32.051 15.6617 32.051C15.6911 32.051 16.0172 31.8149 16.361 31.521V31.5171ZM8.83693 26.9591C8.39203 26.5173 7.9599 26.148 7.87052 26.148C7.78213 26.148 7.35 26.5006 6.91787 26.9463C5.99369 27.8632 6.01039 27.9514 7.15456 28.9398L7.85383 29.5569L8.74756 28.6704L9.65405 27.7702L8.83693 26.9591ZM14.0098 28.5989C14.4419 28.1571 14.7847 27.7408 14.7847 27.6693C14.7847 27.5938 14.4881 27.2578 14.1325 26.9003C13.2555 26.0422 12.7507 26.0882 11.9169 27.0766L11.306 27.7829L12.1113 28.5822C12.5562 29.0231 12.9884 29.3933 13.0777 29.3933C13.1828 29.3933 13.5983 29.0407 14.0137 28.595L14.0098 28.5989ZM6.01039 26.2067C7.03572 25.2477 7.06617 25.0714 6.29422 24.2887C5.59593 23.5824 5.34156 23.5197 4.67176 23.8606C4.23962 24.083 4.22686 24.1251 4.22686 25.0714C4.22686 25.9413 4.274 26.1058 4.62953 26.4712C4.85443 26.6936 5.09112 26.8836 5.15103 26.8836C5.22666 26.8836 5.61263 26.5721 6.0153 26.2067H6.01039ZM11.4975 25.8952L12.238 25.0371L11.4631 24.2681C11.0477 23.8391 10.5989 23.4864 10.4673 23.4864C10.2306 23.5031 8.83202 24.8275 8.83202 25.0498C8.83202 25.332 10.2011 26.7318 10.4673 26.7318C10.6156 26.7318 11.0781 26.3497 11.4926 25.8913L11.4975 25.8952ZM16.4493 26.1891C16.9237 25.7316 17.0131 25.5416 17.0131 25.0253C17.0131 24.4954 16.9365 24.3602 16.5093 24.0203C15.7805 23.4737 15.3945 23.5324 14.6658 24.272C14.3231 24.6129 14.0432 24.9656 14.0432 25.042C14.0432 25.235 15.5595 26.7406 15.7373 26.7406C15.8267 26.7406 16.14 26.4879 16.4493 26.194V26.1891ZM8.82416 23.2964L9.64129 22.4392L8.83693 21.6399C8.39203 21.1991 7.9599 20.8288 7.87052 20.8288C7.78213 20.8288 7.35 21.1814 6.91787 21.6271L6.11253 22.4265L6.91787 23.3257C7.36277 23.8263 7.78213 24.2133 7.87052 24.1966C7.94713 24.1672 8.37435 23.7675 8.82416 23.2964ZM13.997 23.314C14.4291 22.8849 14.7847 22.4725 14.7847 22.3971C14.7847 22.3089 14.5008 21.9553 14.162 21.6154C13.3144 20.7573 12.9717 20.7739 12.0347 21.7202L11.306 22.4559L12.1113 23.267C12.5562 23.7088 12.9884 24.0791 13.065 24.0791C13.1534 24.0791 13.5688 23.7382 14.0009 23.3091L13.997 23.314ZM5.87977 21.0266C6.1636 20.7151 6.51913 20.3204 6.68412 20.1264L6.96795 19.7855L6.1636 18.9871C5.7187 18.5453 5.28656 18.176 5.19719 18.176C5.1088 18.176 4.85443 18.369 4.63444 18.5875C4.29069 18.9411 4.23177 19.1341 4.23177 19.8697C4.23177 20.6691 4.27793 20.77 4.72283 21.1403C4.9772 21.3754 5.22666 21.5517 5.2738 21.5684C5.31996 21.5684 5.59986 21.3166 5.88369 21.0217L5.87977 21.0266ZM11.4415 20.6857L12.3185 19.7982L11.5142 18.9871C11.0693 18.5453 10.6205 18.176 10.5183 18.176C10.3406 18.176 8.95478 19.5465 8.85363 19.8276C8.80648 19.9628 10.2944 21.5684 10.4761 21.5684C10.5222 21.5684 10.9505 21.1697 11.4415 20.6818V20.6857ZM17.017 19.8159C17.017 19.4162 16.8815 19.1684 16.466 18.7393C16.1694 18.4278 15.8434 18.18 15.755 18.18C15.6656 18.18 15.2335 18.5502 14.7886 18.9911L13.9842 19.8031L14.8613 20.6897L15.7373 21.5772L16.3777 20.9591C16.8815 20.4585 17.017 20.2361 17.017 19.8237V19.8159ZM8.82416 18.1045C9.23862 17.6461 9.58236 17.2337 9.58236 17.1876C9.58236 17.024 8.0532 15.5184 7.88722 15.5184C7.67999 15.5184 6.1636 17.024 6.1636 17.2297C6.1636 17.4227 7.70946 18.9117 7.91767 18.9117C7.99329 18.9117 8.39203 18.5414 8.82416 18.0996V18.1045ZM13.7593 18.369C14.0432 18.0575 14.3987 17.6627 14.5647 17.4697L14.8485 17.1289L14.0432 16.3295C13.5983 15.8887 13.1661 15.5184 13.06 15.5184C12.9717 15.5184 12.5395 15.8887 12.1074 16.3471L11.3187 17.1749L12.1958 18.0457C12.6701 18.516 13.1023 18.9156 13.1494 18.9156C13.1956 18.9156 13.4755 18.6629 13.7593 18.369ZM6.11646 15.4929C6.54859 15.0639 6.9051 14.6524 6.9051 14.577C6.9051 14.3703 5.38772 12.8657 5.19326 12.8657C5.11666 12.8657 4.8672 13.042 4.64229 13.235C4.27007 13.5465 4.22686 13.6934 4.22686 14.5055C4.22686 15.3166 4.28677 15.4929 4.62953 15.8466C4.85443 16.0689 5.09112 16.258 5.1805 16.258C5.26987 16.258 5.68432 15.9181 6.11646 15.489V15.4929ZM11.4975 15.3587L12.2852 14.5006L11.5103 13.6895C11.0781 13.2311 10.646 12.8608 10.5566 12.8608C10.3622 12.8608 8.83202 14.3497 8.83202 14.5427C8.83202 14.7494 10.3494 16.2541 10.5439 16.2413C10.6205 16.2247 11.0477 15.8299 11.4975 15.3548V15.3587ZM16.361 15.729C16.9414 15.2578 17.0131 15.1236 17.0131 14.577C17.0131 14.0304 16.9237 13.8697 16.3305 13.3065L15.6489 12.6423L14.8436 13.5298C14.4114 14.0177 14.0392 14.4761 14.0392 14.5643C14.0392 14.6985 15.5095 16.2629 15.645 16.2629C15.6745 16.2629 16.0005 16.0268 16.356 15.7329L16.361 15.729ZM8.82416 12.8069C9.23862 12.3651 9.58236 11.9488 9.58236 11.9066C9.58236 11.6539 8.17105 10.355 7.88722 10.355C7.59062 10.355 6.1636 11.6245 6.1636 11.89C6.1636 12.0957 7.67999 13.6013 7.88722 13.6013C7.97659 13.6013 8.39203 13.2477 8.82416 12.802V12.8069ZM14.0559 12.7011L14.8308 11.8146L14.1021 11.0779C13.6876 10.6665 13.2555 10.355 13.06 10.355C12.8656 10.355 12.4668 10.6498 12.0347 11.1083L11.3364 11.844L12.0475 12.6129C12.789 13.4123 13.0011 13.6013 13.1789 13.6013C13.226 13.6013 13.6238 13.2017 14.0559 12.7011ZM6.1469 10.1493C7.0534 9.24901 7.0701 9.36754 5.90923 8.2322C5.53602 7.84918 5.16773 7.5553 5.07443 7.5553C4.98604 7.5553 4.76113 7.70224 4.5706 7.87857C4.28677 8.14403 4.22686 8.33701 4.22686 9.16085C4.22686 10.0023 4.274 10.1659 4.62953 10.5313C4.85443 10.7546 5.10389 10.9437 5.19326 10.9437C5.28264 10.9437 5.71477 10.5734 6.1469 10.1453V10.1493ZM11.3954 10.1032L12.2596 9.26175L11.5604 8.55546C10.6539 7.63857 10.3278 7.63857 9.4046 8.53881L8.69256 9.23236L9.54013 10.0905C10.0145 10.5617 10.4339 10.9476 10.4633 10.9476C10.5095 10.9476 10.9249 10.5656 11.3993 10.1071L11.3954 10.1032ZM16.3904 10.3089C17.2252 9.46844 17.237 8.9091 16.466 8.10975C16.1694 7.79922 15.8434 7.5504 15.7678 7.5504C15.5723 7.5504 14.0432 9.03938 14.0432 9.23236C14.0432 9.39693 15.5301 10.9437 15.6784 10.9437C15.7255 10.9437 16.0516 10.6626 16.3904 10.3089ZM8.82416 7.47497C9.87896 6.36901 9.76012 6.22208 7.79883 6.22208C5.83753 6.22208 5.73147 6.36901 6.86287 7.46224C7.33723 7.90403 7.79883 8.29097 7.88722 8.29097C7.97659 8.29097 8.40873 7.92069 8.82416 7.47889V7.47497ZM14.1021 7.39954C14.5774 6.91171 14.9074 6.45326 14.8613 6.3651C14.8141 6.27693 14.1021 6.21816 13.2378 6.21816C11.1881 6.21816 11.0526 6.35236 12.1241 7.47105C12.5395 7.91187 12.9717 8.28216 13.0777 8.28216C13.1828 8.28216 13.6405 7.88248 14.1021 7.39563V7.39954Z" fill="var(--fill-0, #5E0018)"/>
<path id="Vector_5" d="M0.739347 47.4688C0.484978 47.2631 0.217841 46.8506 0.129451 46.5519C0.010614 46.1698 -0.0188496 39.4087 0.010614 24.5375C0.0567737 4.30501 0.0695413 3.03546 0.32391 2.68183C0.459443 2.47612 0.756043 2.22338 0.963271 2.13522C1.23041 2.00101 3.86151 1.95889 10.4064 1.95889C20.3543 1.95889 20.0999 1.94224 20.5782 2.8464C20.9219 3.49391 20.9219 46.3168 20.5782 46.9682C20.1038 47.8851 20.371 47.8557 10.3347 47.8557H1.20487L0.743276 47.4727L0.739347 47.4688ZM19.3122 46.2453C19.5195 45.8456 19.5195 3.96901 19.3122 3.56934C19.1639 3.30485 18.9096 3.28722 10.5674 3.28722C3.37045 3.28722 1.92968 3.31661 1.67531 3.49391C1.39148 3.69963 1.39148 4.0993 1.37871 24.7853C1.37871 36.369 1.42585 46.0053 1.49754 46.1953L1.61638 46.5186H10.373C18.8929 46.5186 19.159 46.5019 19.3073 46.2374L19.3122 46.2453Z" fill="var(--fill-0, #5E0018)"/>
</g>
</svg>
