<svg preserveAspectRatio="none" width="100%" height="100%" overflow="visible" style="display: block;" viewBox="0 0 46 36" fill="none" xmlns="http://www.w3.org/2000/svg">
<g id="bullet 2: Rich pigmentation logo " clip-path="url(#clip0_0_64)">
<path id="Vector" d="M22.6406 35.82C22.0069 35.4979 20.1322 33.9101 19.4976 33.1446C18.8066 32.3346 17.8632 30.941 17.6106 30.33C17.3975 29.8146 17.0042 29.7748 16.0448 30.1197C15.551 30.3025 14.8206 30.3584 12.3957 30.3584C9.54937 30.3735 9.27994 30.3423 7.99945 30.0088C5.36524 29.2983 3.39006 28.35 1.13794 26.694C-0.227041 25.6898 -0.299327 25.4558 0.576551 24.6742C1.43553 23.9078 3.01267 22.932 4.39455 22.3048C5.06859 21.9988 5.63467 21.7051 5.63467 21.6492C5.63467 21.5943 5.29765 21.1054 4.87145 20.5617C3.39006 18.6129 1.85704 15.1001 1.39141 12.5924C1.12198 11.1278 0.925775 11.1988 5.23757 11.2547L8.87063 11.2983V10.4608C8.87063 7.82902 9.50524 4.08218 10.0103 3.67671C10.3924 3.35555 10.6853 3.42755 12.6041 4.33229C14.3221 5.15365 15.9002 6.13039 16.9563 7.03513L17.6585 7.63481L17.9955 6.96787C18.9831 5.0305 22.1393 0.362813 22.6612 0.0852338C23.1832 -0.180977 23.508 0.112708 24.6881 1.88334C25.9977 3.81976 26.744 5.05892 27.5185 6.60597L28.0404 7.6225L28.4225 7.32881C30.393 5.82439 32.4808 4.64208 34.4523 3.90313C35.4117 3.5545 35.805 3.58197 36.0463 4.03008C36.4274 4.78418 36.9053 7.98723 36.9053 9.9085V11.3021L40.6388 11.2462C43.5978 11.2187 44.4286 11.2462 44.5976 11.3854C44.9224 11.6517 44.7938 12.473 44.1601 14.4379C43.4692 16.5808 42.3568 18.828 41.2011 20.3997C40.6792 21.1253 40.2858 21.7212 40.314 21.7487C40.3299 21.7648 40.7637 21.959 41.2734 22.1655C42.4018 22.6383 43.7546 23.4038 44.8943 24.2412C45.8819 24.9518 46.1353 25.3127 45.9382 25.6898C45.7251 26.0791 44.4728 27.1942 43.9386 27.4604C43.6701 27.5997 43.2768 27.8374 43.0355 28.0042C42.6543 28.2818 41.1044 29.0207 39.4428 29.7312C38.5115 30.1197 37.6122 30.3025 35.653 30.4569C33.9181 30.5839 31.6219 30.473 30.3695 30.1793C29.4383 29.969 28.6628 30.0126 28.4263 30.2902C28.3136 30.4171 27.9606 30.9732 27.6518 31.5009C26.9045 32.7552 25.4954 34.3705 24.3276 35.3037C23.34 36.0976 23.2273 36.125 22.6368 35.82H22.6406ZM23.769 33.9537C25.0654 32.922 26.222 31.5293 26.9252 30.1358C27.1655 29.6753 27.3063 29.2585 27.234 29.1874C27.1617 29.1154 26.728 28.8379 26.2342 28.548C25.7564 28.2543 25.0101 27.6707 24.5717 27.2539C23.8253 26.5433 23.7249 26.4884 23.0508 26.4723C22.3599 26.4562 22.3036 26.4884 21.4568 27.2662C20.963 27.7105 20.2721 28.242 19.9069 28.4485C18.4856 29.2424 18.5701 29.1439 18.8066 29.7312C19.1042 30.4133 19.8064 31.5009 20.457 32.2238C21.0193 32.8784 22.8255 34.4937 22.9785 34.4937C23.0349 34.4937 23.3879 34.2559 23.769 33.9499V33.9537ZM36.7044 29.0359C37.9849 28.8256 39.6794 28.2704 41.0725 27.5873C42.3812 26.9488 44.2437 25.6945 44.2437 25.4444C44.2437 25.0673 40.6388 23.13 39.6794 22.9917C39.1734 22.9197 39.0607 22.9756 37.4676 24.174C35.3112 25.7892 32.6902 26.8493 29.6626 27.3211C28.2132 27.5599 27.7597 27.6982 27.7597 27.9483C27.7597 28.0042 28.3502 28.242 29.0684 28.4769C31.5214 29.2708 34.1274 29.465 36.7044 29.0321V29.0359ZM15.9481 28.7422C16.7113 28.548 17.7514 28.1709 18.2734 27.9208L19.2328 27.4604L17.7233 27.3609C13.9447 27.1108 10.2835 25.6623 7.43712 23.309L6.76308 22.7529L6.10031 23.003C4.36639 23.6425 1.76035 25.1744 1.873 25.4956C1.95749 25.7618 3.5628 26.8058 4.86018 27.4443C7.56573 28.782 9.55312 29.2149 12.5403 29.1439C14.1456 29.0993 14.8807 29.016 15.9481 28.7384V28.7422ZM18.9512 26.028C18.8667 25.956 18.5137 25.8053 18.1485 25.6661C16.3865 25.0275 13.9776 23.2408 12.6239 21.5583C10.7651 19.2723 9.77749 16.8783 9.07528 12.9647C9.03116 12.7146 8.89035 12.6597 8.15998 12.5763C7.68214 12.5327 6.31341 12.4929 5.11647 12.4929C3.28586 12.4929 2.93288 12.5204 2.86059 12.7146C2.74794 13.0083 3.6792 15.8068 4.35418 17.1881C6.67859 21.9391 11.0345 25.127 16.2738 25.9522C17.5825 26.1464 19.1324 26.2023 18.9512 26.0356V26.028ZM29.8269 25.9844C30.4334 25.901 31.5899 25.6225 32.4048 25.3572C37.5634 23.6577 41.4499 19.3234 43.1115 13.4337L43.381 12.4844L41.0969 12.5005C39.8437 12.5166 38.3782 12.5564 37.8403 12.6113L36.8527 12.6947L36.5561 14.2427C36.0059 16.9465 35.2033 18.9113 33.766 20.9586C32.4968 22.7851 29.9874 24.7774 28.0329 25.5278C27.679 25.6547 27.2979 25.8489 27.1852 25.9446C27.0172 26.1113 27.1129 26.1388 27.848 26.1388C28.3258 26.1388 29.213 26.0678 29.8194 25.9844H29.8269ZM23.8939 24.6619C25.993 23.4237 27.4424 21.3319 28.1334 18.5457C28.4704 17.2241 28.4582 13.6838 28.1334 12.2068C27.7119 10.3538 27.1458 8.83702 26.2868 7.12229C25.2588 5.1025 23.2433 1.89944 23.002 1.89944C22.6209 1.89944 20.5096 5.06271 19.3089 7.42829C17.6585 10.7024 17.1131 12.9448 17.2088 16.037C17.2652 17.7792 17.3215 18.125 17.743 19.367C18.3213 21.0382 19.2084 22.4318 20.4044 23.5307C21.1235 24.1863 22.6012 25.1185 22.9701 25.1621C23.0142 25.1621 23.4198 24.9404 23.8854 24.6619H23.8939ZM18.9916 23.9513C16.3414 21.221 15.2862 17.1132 16.0767 12.6559C16.149 12.2229 16.4137 11.1789 16.655 10.3575L17.0924 8.85313L16.486 8.33681C14.7521 6.86081 11.456 4.95092 10.9622 5.13376C10.5529 5.3005 10.2431 8.08671 10.3276 10.7744C10.4121 13.3219 10.6092 14.4379 11.3274 16.5533C12.6361 20.3712 15.5106 23.3526 19.1324 24.6742C19.9632 24.9802 19.9632 24.9404 18.9916 23.9476V23.9513ZM28.5586 23.868C30.2372 23.0191 32.1795 21.1651 33.3079 19.3396C35.3357 16.0257 36.1101 11.0633 35.2793 6.60597L35.054 5.38008H34.5884C33.6853 5.38008 31.052 6.9006 28.9801 8.6106L28.5868 8.93271L28.9238 10.115C29.5866 12.3574 29.6589 12.8861 29.6589 15.4771C29.6589 17.7916 29.6307 18.0975 29.2655 19.3632C28.7877 21.078 27.9681 22.6222 26.897 23.8926L26.0652 24.8807L26.9524 24.5472C27.4302 24.3644 28.1653 24.0593 28.5586 23.8642V23.868Z" fill="var(--fill-0, #5E0018)"/>
</g>
<defs>
<clipPath id="clip0_0_64">
<rect width="46" height="36" fill="white"/>
</clipPath>
</defs>
</svg>
