<svg preserveAspectRatio="none" width="100%" height="100%" overflow="visible" style="display: block;" viewBox="0 0 36 39" fill="none" xmlns="http://www.w3.org/2000/svg">
<g id="bullet 1: skin friendly logo " clip-path="url(#clip0_0_45)">
<path id="Vector" d="M4.10253 23.686C2.30678 21.8346 0.998171 19.5657 0.470908 17.3884C-0.726895 12.5667 0.387807 6.53683 3.50362 1.00433C4.26968 -0.35068 4.46359 -0.350679 6.32715 1.09962C8.7495 2.95205 11.8109 6.05467 12.5043 7.34393C12.7546 7.78798 12.5597 8.1901 12.1003 8.1901C11.85 8.1901 11.4622 7.82609 10.5137 6.7398C8.81732 4.78065 5.29651 1.60847 4.80841 1.60847C4.48746 1.60847 2.7901 5.27425 2.2189 7.18003C1.20449 10.5504 1.02205 14.5106 1.75945 17.2121C2.33066 19.278 3.3059 20.9732 4.98703 22.8141C5.87917 23.7937 6.05779 24.2254 5.72443 24.5475C5.39107 24.8686 5.07013 24.6961 4.09488 23.686H4.10253ZM5.99857 38.8551C5.89923 38.7589 5.83141 38.5712 5.83141 38.4263C5.83141 38.009 6.87447 34.7339 7.52878 33.1073C7.83444 32.3269 8.08374 31.6036 8.08374 31.4969C8.08374 31.3902 7.929 30.9347 7.7351 30.4906C7.26323 29.4158 6.85824 27.4147 6.63663 25.1449C6.49813 23.6146 6.49813 23.0371 6.66433 21.6516C6.77514 20.753 6.87447 19.4361 6.85824 18.7367C6.84295 17.4198 6.24787 13.1652 5.55059 9.49556C5.28409 8.05765 5.20099 7.31916 5.28409 7.15812C5.43883 6.87511 6.01003 6.83699 6.21635 7.08951C6.43795 7.34584 7.09226 10.701 7.8182 15.373L8.00064 16.5136L8.62724 15.3044C11.0496 10.6438 14.7653 7.46018 20.3044 5.28663C22.5328 4.41474 24.5349 3.84872 28.3767 3.0178C30.1017 2.65474 32.2031 2.13065 33.0676 1.87814C35.6409 1.09772 35.6686 1.11296 35.9064 3.75629C36.4614 10.135 34.5032 18.0325 31.1601 22.838C30.1571 24.2768 27.6278 26.6915 26.153 27.6167C23.4957 29.2814 20.697 30.3954 18.0119 30.8651C15.8828 31.2291 14.7691 31.3473 12.1958 31.4435C9.85656 31.5236 9.70564 31.5388 9.51079 31.818C9.20608 32.2735 8.27382 34.7186 7.64722 36.7883C7.31481 37.8213 6.99387 38.7475 6.92223 38.8437C6.73979 39.0457 6.22781 39.0572 6.00239 38.8437L5.99857 38.8551ZM14.4042 30.139C17.7149 29.8284 20.3598 29.1166 23.1585 27.8006C27.112 25.9225 29.6299 23.4354 31.5928 19.4905C32.9405 16.7509 33.9158 13.5406 34.443 10.0511C34.6809 8.53123 34.7764 3.88683 34.5825 3.33606C34.4431 2.9187 33.9158 2.93394 32.3416 3.37799C31.6596 3.56476 29.6299 4.04692 27.8341 4.45285C23.1155 5.50104 19.844 6.63021 17.3424 8.08052C12.3744 10.9687 8.90902 15.7484 8.0484 20.8903C7.83826 22.1262 7.88124 25.0115 8.1315 26.599C8.36934 28.1446 8.76956 29.8903 8.88514 29.8903C8.92812 29.8903 9.3293 29.2052 9.76105 28.3705C10.2052 27.5519 11.1365 26.0216 11.8348 24.9886L13.1157 23.1095L13.2265 20.6263C13.3535 17.4579 13.4767 15.9657 13.6582 15.4302C13.77 15.0671 13.8693 14.9861 14.2017 14.9861C14.7452 14.9861 14.7844 15.2158 14.6182 17.5389C14.5351 18.6138 14.4634 19.8764 14.4634 20.3585V21.2314L15.3957 20.2251C15.9105 19.6734 17.136 18.4261 18.1075 17.4741L19.8879 15.7132L20.1649 13.5101C20.3197 12.3009 20.4868 11.1717 20.526 10.9992C20.6807 10.4218 21.4583 10.2884 21.613 10.7972C21.656 10.9306 21.5968 11.7492 21.5012 12.6372C21.4029 13.5253 21.335 14.2753 21.3627 14.302C21.3904 14.3286 21.8069 13.9913 22.3103 13.5482C23.5195 12.4457 27.2228 9.59943 28.6823 8.61985C29.5582 8.0424 29.947 7.86612 30.1571 7.91948C30.4628 8.01477 30.6729 8.44357 30.5335 8.67322C30.4781 8.75326 29.5745 9.45363 28.5161 10.2188C26.2199 11.8835 23.5358 14.0723 21.6283 15.8323L20.2366 17.1216L23.4364 17.1368C26.7357 17.1368 27.2782 17.2169 27.3737 17.699C27.4014 17.8067 27.3021 18.0097 27.1798 18.1431C26.9697 18.346 26.5532 18.3575 22.977 18.3308L18.9958 18.3041L17.6318 19.743C15.8513 21.6364 14.0431 23.8099 14.0431 24.0662C14.0431 24.2006 14.1262 24.254 14.2934 24.2006C14.4204 24.1577 15.1301 24.0662 15.8513 23.9862C16.5773 23.9166 18.246 23.6918 19.567 23.4888C22.0849 23.1134 22.3896 23.14 22.3896 23.7184C22.3896 24.0929 22.0963 24.2425 20.9148 24.4569C19.3129 24.7399 14.0393 25.4632 13.5235 25.4632C12.9963 25.4632 12.7307 25.7843 11.3553 28.2142C10.0466 30.5097 10.0189 30.2953 11.5654 30.2953C12.2904 30.2953 13.5675 30.2267 14.4042 30.1467V30.139Z" fill="var(--fill-0, #5E0018)"/>
</g>
<defs>
<clipPath id="clip0_0_45">
<rect width="36" height="39" fill="white"/>
</clipPath>
</defs>
</svg>
