<svg preserveAspectRatio="none" width="100%" height="100%" overflow="visible" style="display: block;" viewBox="0 0 14 11" fill="none" xmlns="http://www.w3.org/2000/svg">
<g id="Group">
<path id="Vector" d="M1.33221 11C0.95986 11 0.644491 10.8719 0.387088 10.6148C0.128702 10.3586 0 10.0447 0 9.67413V1.32587C0 0.955289 0.128702 0.641422 0.387088 0.385244C0.644491 0.128089 0.95986 0 1.33221 0H12.6678C13.0401 0 13.3555 0.128089 13.6129 0.385244C13.8713 0.641422 14 0.955289 14 1.32587V9.67413C14 10.0447 13.8713 10.3586 13.6129 10.6148C13.3555 10.8719 13.0401 11 12.6678 11H1.33221ZM7 5.90871L1.10526 2.15796V9.67413C1.10526 9.74062 1.12688 9.7944 1.16912 9.83644C1.21137 9.87849 1.2654 9.9 1.33221 9.9H12.6678C12.7346 9.9 12.7886 9.87849 12.8309 9.83644C12.8731 9.7944 12.8947 9.74062 12.8947 9.67413V2.15796L7 5.90871ZM7 4.76667L12.7818 1.1H1.21825L7 4.76667ZM1.10526 9.67413C1.10526 9.74062 1.12688 9.7944 1.16912 9.83644C1.21137 9.87849 1.2654 9.9 1.33221 9.9H1.10526C1.10526 9.9 1.10526 9.87849 1.10526 9.83644C1.10526 9.7944 1.10526 9.74062 1.10526 9.67413Z" fill="var(--fill-0, #FFF8F6)" fill-opacity="0.6"/>
</g>
</svg>
