<svg preserveAspectRatio="none" width="100%" height="100%" overflow="visible" style="display: block;" viewBox="0 0 13 14" fill="none" xmlns="http://www.w3.org/2000/svg">
<g id="Group">
<path id="Vector" d="M10.9394 14C10.3674 14 9.88102 13.8074 9.48133 13.4213C9.08165 13.0352 8.88282 12.5676 8.88282 12.0164C8.88282 11.9427 8.90831 11.7639 8.96133 11.479L3.52376 8.39411C3.33922 8.57881 3.12 8.72323 2.86714 8.82737C2.61326 8.93151 2.34102 8.98358 2.05145 8.98358C1.48149 8.98358 0.997177 8.79004 0.59851 8.40295C0.199843 8.01586 0 7.54821 0 7C0 6.45179 0.199843 5.98414 0.59851 5.59705C0.997177 5.20996 1.48149 5.01642 2.05145 5.01642C2.34102 5.01642 2.61326 5.06849 2.86714 5.17263C3.12 5.27677 3.33922 5.42119 3.52376 5.60589L8.96133 2.52786C8.93176 2.43747 8.91035 2.34807 8.89914 2.26161C8.88792 2.17418 8.88282 2.08182 8.88282 1.98358C8.88282 1.43242 9.08267 0.964772 9.48337 0.578667C9.88408 0.192561 10.3704 0 10.9424 0C11.5155 0 12.0008 0.193544 12.4005 0.578667C12.8002 0.964772 13 1.4334 13 1.98554C13 2.5367 12.8002 3.00533 12.3995 3.39046C11.9987 3.77558 11.5134 3.96716 10.9414 3.96716C10.6498 3.96716 10.3796 3.91411 10.1288 3.80702C9.87796 3.70091 9.66078 3.55551 9.47624 3.37081L4.03867 6.45572C4.06824 6.54611 4.08965 6.63551 4.10086 6.72196C4.11208 6.8094 4.11718 6.90175 4.11718 7C4.11718 7.09825 4.11208 7.1906 4.10086 7.27804C4.08965 7.36449 4.06824 7.45389 4.03867 7.54428L9.47624 10.6292C9.66078 10.4445 9.87796 10.2991 10.1288 10.193C10.3796 10.0859 10.6498 10.0328 10.9414 10.0328C11.5134 10.0328 11.9987 10.2254 12.3995 10.6115C12.8002 10.9976 13 11.4662 13 12.0174C13 12.5695 12.7991 13.0372 12.3995 13.4223C11.9987 13.8074 11.5114 14 10.9394 14ZM10.9435 12.8947C11.2024 12.8947 11.4186 12.8102 11.5929 12.6413C11.7663 12.4723 11.8529 12.263 11.8529 12.0135C11.8529 11.7639 11.7653 11.5556 11.5919 11.3886C11.4176 11.2216 11.2014 11.1381 10.9435 11.1381C10.6865 11.1381 10.4693 11.2216 10.2929 11.3896C10.1176 11.5576 10.0289 11.7659 10.0289 12.0135C10.0289 12.262 10.1165 12.4713 10.2919 12.6403C10.4673 12.8102 10.6845 12.8947 10.9435 12.8947ZM2.05145 7.87832C2.31145 7.87832 2.53067 7.79382 2.70604 7.62386C2.88243 7.45488 2.97012 7.2466 2.97012 7C2.97012 6.7534 2.88243 6.54512 2.70604 6.37614C2.53067 6.20618 2.31145 6.12168 2.05145 6.12168C1.79553 6.12168 1.58039 6.20618 1.40706 6.37614C1.23373 6.54512 1.14706 6.7534 1.14706 7C1.14706 7.2466 1.23373 7.45488 1.40706 7.62386C1.58039 7.79382 1.79553 7.87832 2.05145 7.87832ZM10.9414 2.86189C11.1973 2.86189 11.4125 2.77839 11.5889 2.6094C11.7653 2.4414 11.8529 2.23312 11.8529 1.98358C11.8529 1.73502 11.7663 1.52575 11.5929 1.35775C11.4186 1.18975 11.2024 1.10526 10.9435 1.10526C10.6845 1.10526 10.4673 1.18877 10.2919 1.35677C10.1165 1.52477 10.0289 1.73305 10.0289 1.98161C10.0289 2.22919 10.1176 2.43846 10.2929 2.60842C10.4693 2.7774 10.6855 2.86189 10.9414 2.86189Z" fill="var(--fill-0, #FFF8F6)" fill-opacity="0.6"/>
</g>
</svg>
